<svg width="65" height="55" viewBox="0 0 65 55" fill="none" xmlns="http://www.w3.org/2000/svg">
<g clip-path="url(#clip0_4_248)">
<path d="M32.5 6.1291C28.4984 3.21753 22.6972 2.78441 17.4159 3.23128C11.2653 3.75722 5.05781 5.54128 1.19031 7.02972C0.835449 7.16628 0.534525 7.38637 0.32346 7.66371C0.112396 7.94105 0.000107946 8.26392 0 8.59378L0 46.4063C9.40956e-05 46.6939 0.0854634 46.9768 0.248288 47.2292C0.411113 47.4817 0.646188 47.6955 0.931981 47.8511C1.21777 48.0067 1.54515 48.0992 1.88412 48.12C2.22309 48.1409 2.56282 48.0894 2.87219 47.9703C6.45531 46.5953 12.2281 44.9419 17.8222 44.4641C23.5463 43.976 28.3441 44.7632 30.9156 47.4788C31.106 47.6795 31.3471 47.8415 31.6214 47.9529C31.8956 48.0642 32.1958 48.122 32.5 48.122C32.8042 48.122 33.1044 48.0642 33.3786 47.9529C33.6529 47.8415 33.894 47.6795 34.0844 47.4788C36.6559 44.7632 41.4538 43.976 47.1738 44.4641C52.7719 44.9419 58.5488 46.5953 62.1278 47.9703C62.4372 48.0894 62.7769 48.1409 63.1159 48.12C63.4549 48.0992 63.7822 48.0067 64.068 47.8511C64.3538 47.6955 64.5889 47.4817 64.7517 47.2292C64.9145 46.9768 64.9999 46.6939 65 46.4063V8.59378C64.9999 8.26392 64.8876 7.94105 64.6765 7.66371C64.4655 7.38637 64.1646 7.16628 63.8097 7.02972C59.9422 5.54128 53.7347 3.75722 47.5841 3.23128C42.3028 2.78097 36.5016 3.21753 32.5 6.1291Z" fill="white"/>
</g>
<defs>
<clipPath id="clip0_4_248">
<rect width="65" height="55" fill="white"/>
</clipPath>
</defs>
</svg>
