<svg width="81" height="81" viewBox="0 0 81 81" fill="none" xmlns="http://www.w3.org/2000/svg">
<path d="M34.2225 6.77026C36.6086 6.77026 37.9688 9.14626 37.9688 11.5324V26.1563H34.9481C34.3607 24.7041 33.2865 23.5015 31.9096 22.7545C30.5328 22.0075 28.939 21.7626 27.4013 22.0618C25.8637 22.361 24.478 23.1857 23.4818 24.3945C22.4855 25.6034 21.9407 27.1211 21.9407 28.6875C21.9407 30.254 22.4855 31.7717 23.4818 32.9805C24.478 34.1893 25.8637 35.014 27.4013 35.3132C28.939 35.6124 30.5328 35.3676 31.9096 34.6206C33.2865 33.8735 34.3607 32.6709 34.9481 31.2188H37.9688V67.9995C37.9688 70.011 37.1183 72.0124 35.3261 72.927C33.7011 73.7782 31.8956 74.2273 30.0611 74.2365C24.9649 74.2365 21.1748 71.658 18.7346 68.607C17.0447 66.5015 15.8663 64.0327 15.2921 61.3946C13.7161 60.9296 12.2564 60.1359 11.0093 59.0659C8.613 57.0038 6.75 53.6963 6.75 48.8228C6.75 46.2746 6.93225 44.0539 7.39125 42.1875H21.6C23.8883 42.1875 25.785 43.875 26.1056 46.0721C24.6592 46.6705 23.4656 47.7531 22.7293 49.1345C21.9931 50.5159 21.7598 52.1102 22.0694 53.6446C22.379 55.1791 23.2123 56.5582 24.4267 57.5459C25.6411 58.5337 27.161 59.0687 28.7263 59.0593C30.2917 59.05 31.8051 58.4969 33.0076 57.4947C34.2101 56.4925 35.0268 55.1035 35.3181 53.5655C35.6094 52.0275 35.3571 50.436 34.6044 49.0635C33.8516 47.6911 32.6453 46.6229 31.1917 46.0418C31.0145 43.6189 29.927 41.3529 28.1477 39.6989C26.3685 38.0449 24.0293 37.1254 21.6 37.125H10.26C10.7654 36.7073 11.328 36.3641 11.9306 36.1058C11.5827 34.8657 11.3811 33.5891 11.3299 32.3021C11.2185 29.8215 11.5897 27.2396 12.3255 24.9413C13.0545 22.68 14.2088 20.4761 15.8288 18.954C16.845 17.9638 18.1324 17.2978 19.5277 17.0404C20.1994 14.2054 21.9105 11.8631 24.0941 10.1655C26.8987 7.97851 30.5741 6.77026 34.2191 6.77026H34.2225ZM43.0312 57.375H48.6C51.151 57.375 53.5976 56.3616 55.4015 54.5577C57.2053 52.7539 58.2187 50.3073 58.2188 47.7563V41.6981C59.6709 41.1107 60.8735 40.0365 61.6205 38.6597C62.3676 37.2828 62.6124 35.689 62.3132 34.1514C62.014 32.6137 61.1893 31.2281 59.9805 30.2318C58.7717 29.2355 57.254 28.6907 55.6875 28.6907C54.121 28.6907 52.6033 29.2355 51.3945 30.2318C50.1857 31.2281 49.361 32.6137 49.0618 34.1514C48.7626 35.689 49.0074 37.2828 49.7545 38.6597C50.5015 40.0365 51.7041 41.1107 53.1562 41.6981V47.7563C53.1562 48.9647 52.6762 50.1236 51.8218 50.978C50.9673 51.8325 49.8084 52.3125 48.6 52.3125H43.0312V11.5324C43.0312 9.14626 44.3914 6.77026 46.7775 6.77026C50.4292 6.77026 54.1013 7.97851 56.9059 10.1655C59.0895 11.8631 60.8006 14.2088 61.4723 17.0404C62.8898 17.2766 64.152 17.9989 65.1712 18.954C66.7912 20.4761 67.9455 22.6766 68.6745 24.9413C69.4102 27.2396 69.7815 29.8215 69.6701 32.3021C69.6127 33.5711 69.4271 34.8671 69.0694 36.1058L69.2921 36.207C70.5409 36.7943 71.5534 37.7156 72.3094 38.9408C73.7437 41.2526 74.25 44.5804 74.25 48.8228C74.25 53.6996 72.387 57.0105 69.9908 59.0659C68.7426 60.1363 67.2818 60.93 65.7045 61.3946C65.1312 64.0323 63.954 66.5011 62.2654 68.607C59.8252 71.658 56.0351 74.2365 50.9355 74.2365C49.1013 74.2283 47.2958 73.7804 45.6705 72.9304C43.8817 72.0124 43.0312 70.011 43.0312 67.9995V57.375V57.375ZM27 28.6875C27 28.24 27.1778 27.8107 27.4943 27.4943C27.8107 27.1778 28.2399 27 28.6875 27C29.1351 27 29.5643 27.1778 29.8807 27.4943C30.1972 27.8107 30.375 28.24 30.375 28.6875C30.375 29.1351 30.1972 29.5643 29.8807 29.8808C29.5643 30.1972 29.1351 30.375 28.6875 30.375C28.2399 30.375 27.8107 30.1972 27.4943 29.8808C27.1778 29.5643 27 29.1351 27 28.6875ZM28.6875 50.625C28.2399 50.625 27.8107 50.8028 27.4943 51.1193C27.1778 51.4357 27 51.865 27 52.3125C27 52.7601 27.1778 53.1893 27.4943 53.5058C27.8107 53.8222 28.2399 54 28.6875 54C29.1351 54 29.5643 53.8222 29.8807 53.5058C30.1972 53.1893 30.375 52.7601 30.375 52.3125C30.375 51.865 30.1972 51.4357 29.8807 51.1193C29.5643 50.8028 29.1351 50.625 28.6875 50.625ZM54 35.4375C54 35.8851 54.1778 36.3143 54.4943 36.6308C54.8107 36.9472 55.2399 37.125 55.6875 37.125C56.1351 37.125 56.5643 36.9472 56.8807 36.6308C57.1972 36.3143 57.375 35.8851 57.375 35.4375C57.375 34.99 57.1972 34.5607 56.8807 34.2443C56.5643 33.9278 56.1351 33.75 55.6875 33.75C55.2399 33.75 54.8107 33.9278 54.4943 34.2443C54.1778 34.5607 54 34.99 54 35.4375V35.4375Z" fill="white"/>
</svg>
