<svg width="46" height="44" viewBox="0 0 46 44" fill="none" xmlns="http://www.w3.org/2000/svg">
<g clip-path="url(#clip0_189_67)">
<path d="M43.125 4.12026L31.6149 4.1203V1.37993C31.6149 0.620241 30.9717 0.00492859 30.1774 0.00492859C29.3832 0.00492859 28.7399 0.620241 28.7399 1.37993V4.11962H17.2399V1.37993C17.2399 0.620241 16.5967 0.00492859 15.8024 0.00492859C15.0082 0.00492859 14.3649 0.620241 14.3649 1.37993V4.11962H2.875C1.28728 4.11962 0 5.35093 0 6.86962V41.2446C0 42.7633 1.28728 43.9946 2.875 43.9946H43.125C44.7127 43.9946 46 42.7633 46 41.2446V6.86962C46 5.35157 44.7127 4.12026 43.125 4.12026ZM43.125 41.2446H2.875V6.86962H14.3649V8.25493C14.3649 9.01457 15.0082 9.62993 15.8024 9.62993C16.5967 9.62993 17.2399 9.01457 17.2399 8.25493V6.8703H28.7399V8.25562C28.7399 9.0153 29.3832 9.63062 30.1774 9.63062C30.9717 9.63062 31.6149 9.0153 31.6149 8.25562V6.8703H43.125V41.2446ZM33.0625 21.9953H35.9375C36.731 21.9953 37.375 21.3793 37.375 20.6203V17.8703C37.375 17.1113 36.731 16.4953 35.9375 16.4953H33.0625C32.269 16.4953 31.625 17.1113 31.625 17.8703V20.6203C31.625 21.3793 32.269 21.9953 33.0625 21.9953ZM33.0625 32.9946H35.9375C36.731 32.9946 37.375 32.3793 37.375 31.6196V28.8696C37.375 28.1106 36.731 27.4946 35.9375 27.4946H33.0625C32.269 27.4946 31.625 28.1106 31.625 28.8696V31.6196C31.625 32.3799 32.269 32.9946 33.0625 32.9946ZM24.4375 27.4946H21.5625C20.769 27.4946 20.125 28.1106 20.125 28.8696V31.6196C20.125 32.3793 20.769 32.9946 21.5625 32.9946H24.4375C25.231 32.9946 25.875 32.3793 25.875 31.6196V28.8696C25.875 28.1113 25.231 27.4946 24.4375 27.4946ZM24.4375 16.4953H21.5625C20.769 16.4953 20.125 17.1113 20.125 17.8703V20.6203C20.125 21.3793 20.769 21.9953 21.5625 21.9953H24.4375C25.231 21.9953 25.875 21.3793 25.875 20.6203V17.8703C25.875 17.1106 25.231 16.4953 24.4375 16.4953ZM12.9375 16.4953H10.0625C9.269 16.4953 8.625 17.1113 8.625 17.8703V20.6203C8.625 21.3793 9.269 21.9953 10.0625 21.9953H12.9375C13.731 21.9953 14.375 21.3793 14.375 20.6203V17.8703C14.375 17.1106 13.731 16.4953 12.9375 16.4953ZM12.9375 27.4946H10.0625C9.269 27.4946 8.625 28.1106 8.625 28.8696V31.6196C8.625 32.3793 9.269 32.9946 10.0625 32.9946H12.9375C13.731 32.9946 14.375 32.3793 14.375 31.6196V28.8696C14.375 28.1113 13.731 27.4946 12.9375 27.4946Z" fill="#55E0FF"/>
</g>
<rect x="0.5" y="0.5" width="45" height="43" stroke="#55E0FF"/>
<defs>
<clipPath id="clip0_189_67">
<rect width="46" height="44" fill="white"/>
</clipPath>
</defs>
</svg>
