<svg width="47" height="48" viewBox="0 0 47 48" fill="none" xmlns="http://www.w3.org/2000/svg">
<g clip-path="url(#clip0_189_63)">
<path d="M43.7486 23.7332L24.8431 4.43941C24.7069 4.30012 24.5453 4.18961 24.3673 4.11421C24.1893 4.03881 23.9985 4 23.8058 4C23.6131 4 23.4223 4.03881 23.2443 4.11421C23.0663 4.18961 22.9046 4.30012 22.7685 4.43941L3.86289 23.7332C3.31211 24.2957 3 25.0597 3 25.8566C3 27.5113 4.31729 28.8566 5.9375 28.8566H7.92949V42.6238C7.92949 43.4535 8.58584 44.1238 9.39824 44.1238H20.8683V33.6238H26.0089V44.1238H38.2133C39.0257 44.1238 39.682 43.4535 39.682 42.6238V28.8566H41.674C42.4543 28.8566 43.2024 28.5425 43.7532 27.9754C44.8961 26.8035 44.8961 24.905 43.7486 23.7332Z" fill="#55E0FF"/>
</g>
<defs>
<clipPath id="clip0_189_63">
<rect width="47" height="48" fill="white"/>
</clipPath>
</defs>
</svg>
