<svg width="58" height="58" viewBox="0 0 58 58" fill="none" xmlns="http://www.w3.org/2000/svg">
<path d="M10.35 12C9.19631 12 8.08987 12.4583 7.27409 13.2741C6.4583 14.0899 6 15.1963 6 16.35V22.15C6 23.3037 6.4583 24.4101 7.27409 25.2259C8.08987 26.0417 9.19631 26.5 10.35 26.5H16.15C17.3037 26.5 18.4101 26.0417 19.2259 25.2259C20.0417 24.4101 20.5 23.3037 20.5 22.15V16.35C20.5 15.1963 20.0417 14.0899 19.2259 13.2741C18.4101 12.4583 17.3037 12 16.15 12H10.35ZM27.75 14.9C27.3654 14.9 26.9966 15.0528 26.7247 15.3247C26.4528 15.5966 26.3 15.9654 26.3 16.35C26.3 16.7346 26.4528 17.1034 26.7247 17.3753C26.9966 17.6472 27.3654 17.8 27.75 17.8H50.95C51.3346 17.8 51.7034 17.6472 51.9753 17.3753C52.2472 17.1034 52.4 16.7346 52.4 16.35C52.4 15.9654 52.2472 15.5966 51.9753 15.3247C51.7034 15.0528 51.3346 14.9 50.95 14.9H27.75ZM27.75 20.7C27.3654 20.7 26.9966 20.8528 26.7247 21.1247C26.4528 21.3966 26.3 21.7654 26.3 22.15C26.3 22.5346 26.4528 22.9034 26.7247 23.1753C26.9966 23.4472 27.3654 23.6 27.75 23.6H45.15C45.5346 23.6 45.9034 23.4472 46.1753 23.1753C46.4472 22.9034 46.6 22.5346 46.6 22.15C46.6 21.7654 46.4472 21.3966 46.1753 21.1247C45.9034 20.8528 45.5346 20.7 45.15 20.7H27.75ZM10.35 32.3C9.19631 32.3 8.08987 32.7583 7.27409 33.5741C6.4583 34.3899 6 35.4963 6 36.65V42.45C6 43.6037 6.4583 44.7101 7.27409 45.5259C8.08987 46.3417 9.19631 46.8 10.35 46.8H16.15C17.3037 46.8 18.4101 46.3417 19.2259 45.5259C20.0417 44.7101 20.5 43.6037 20.5 42.45V36.65C20.5 35.4963 20.0417 34.3899 19.2259 33.5741C18.4101 32.7583 17.3037 32.3 16.15 32.3H10.35ZM27.75 35.2C27.3654 35.2 26.9966 35.3528 26.7247 35.6247C26.4528 35.8966 26.3 36.2654 26.3 36.65C26.3 37.0346 26.4528 37.4034 26.7247 37.6753C26.9966 37.9472 27.3654 38.1 27.75 38.1H50.95C51.3346 38.1 51.7034 37.9472 51.9753 37.6753C52.2472 37.4034 52.4 37.0346 52.4 36.65C52.4 36.2654 52.2472 35.8966 51.9753 35.6247C51.7034 35.3528 51.3346 35.2 50.95 35.2H27.75ZM27.75 41C27.3654 41 26.9966 41.1528 26.7247 41.4247C26.4528 41.6966 26.3 42.0654 26.3 42.45C26.3 42.8346 26.4528 43.2034 26.7247 43.4753C26.9966 43.7472 27.3654 43.9 27.75 43.9H45.15C45.5346 43.9 45.9034 43.7472 46.1753 43.4753C46.4472 43.2034 46.6 42.8346 46.6 42.45C46.6 42.0654 46.4472 41.6966 46.1753 41.4247C45.9034 41.1528 45.5346 41 45.15 41H27.75Z" fill="#55E0FF"/>
</svg>
