<svg width="55" height="54" viewBox="0 0 55 54" fill="none" xmlns="http://www.w3.org/2000/svg">
<path d="M21.8214 1V8.42857L18.0357 10.2857L12.3571 4.71429L4.78571 12.1429L10.4643 17.7143L8.57143 21.4286H1V32.5714H8.57143L10.4643 36.2857L4.78571 41.8571L12.3571 49.2857L18.0357 43.7143L21.8214 45.5714V53H33.1786V45.5714L36.9643 43.7143L42.6429 49.2857L50.2143 41.8571L44.5357 36.2857L46.4286 32.5714H54V21.4286H46.4286L44.5357 17.7143L50.2143 12.1429L42.6429 4.71429L36.9643 10.2857L33.1786 8.42857V1H21.8214Z" stroke="#55E0FF" stroke-width="2" stroke-linecap="round" stroke-linejoin="round"/>
<path d="M27.5 34.4286C31.6816 34.4286 35.0714 31.1027 35.0714 27C35.0714 22.8973 31.6816 19.5714 27.5 19.5714C23.3184 19.5714 19.9286 22.8973 19.9286 27C19.9286 31.1027 23.3184 34.4286 27.5 34.4286Z" stroke="#55E0FF" stroke-width="2" stroke-linecap="round" stroke-linejoin="round"/>
</svg>
